<svg xmlns="http://www.w3.org/2000/svg" viewBox="0 0 21.682 24"><defs><style>.a{fill:#cb9452;}</style></defs><path class="a" d="M21.388,9.446A11.932,11.932,0,0,0,5.559.741C5.506.768,5.452.768,5.4.8A8.478,8.478,0,0,0-.011,8.562a8.661,8.661,0,0,0,5.089,8.276l.616.295h0a9.865,9.865,0,0,0,3.83.7A7.351,7.351,0,0,0,14,16.543c1.152-.857,2.384-2.6,1.875-6.026a.312.312,0,0,0-.054-.187V10.3a4.787,4.787,0,0,0-4.9-3.562,4.867,4.867,0,0,0-4.66,4.044l-.562,3.134a.735.735,0,0,0,1.446.268L7.7,11.053a3.377,3.377,0,0,1,3.267-2.839,3.265,3.265,0,0,1,3.4,2.464l.027.054c.321,2.169-.134,3.723-1.312,4.607-2.035,1.553-5.7.911-6.8.4h0l-.616-.295a7.146,7.146,0,0,1-4.2-6.856A6.982,6.982,0,0,1,5.934,2.161c.054,0,.107-.027.161-.027a10.48,10.48,0,0,1,13.873,7.66A10.623,10.623,0,0,1,14.612,21.31a10.373,10.373,0,0,1-8.811.429l.536-2.892a.735.735,0,1,0-1.446-.268l-.616,3.455a.755.755,0,0,0,.4.8,12.039,12.039,0,0,0,5.062,1.152A11.844,11.844,0,0,0,15.308,22.6a11.979,11.979,0,0,0,6.08-13.15Z" transform="translate(0.016 0.011)"/></svg>