<svg id="Camada_1" data-name="Camada 1" xmlns="http://www.w3.org/2000/svg" viewBox="0 0 657.18 146.01"><defs><style>.cls-1{fill:#bf9133;}.cls-2{fill:#4c3b33;}</style></defs><title>domluiggi</title><path class="cls-1" d="M130.29,57.52A72.65,72.65,0,0,0,34,4.54l-.94.36C13.33,12.57.67,30.66,0,52.12c-.67,22,11.21,41.35,31,50.46l3.76,1.74h0c4.86,2.24,13.76,4.29,23.35,4.29s19.59-2,27.21-7.76C92.29,95.6,99.92,85,96.8,64.11a9.51,9.51,0,0,0-.28-1.2l0-.12C92.19,47.1,78.42,40.62,66.67,41.13c-12,.53-25.38,8.38-28.34,24.7L34.88,84.89a4.48,4.48,0,1,0,8.81,1.61l3.46-19.06c2.21-12.23,12.11-17,19.92-17.31,7.58-.35,17.59,3.4,20.77,15l.12.41c1.94,13.15-.75,22.6-8,28.08-12.45,9.41-34.69,5.58-41.44,2.47h0L34.75,94.4C18.3,86.82,8.43,70.73,9,52.4c.54-17.78,11-32.77,27.31-39.11l.82-.31a63.69,63.69,0,0,1,84.44,46.49c6.09,27.59-7.61,57.09-32.6,70.15a63.32,63.32,0,0,1-53.57,2.68l3.2-17.61a4.48,4.48,0,1,0-8.81-1.62l-3.83,21.12a4.5,4.5,0,0,0,2.5,4.88A72.14,72.14,0,0,0,59.24,146a73,73,0,0,0,71-88.49Z"/><path class="cls-2" d="M202.43,44.17q12.56,0,20.2,7.73t7.65,20v8.77q0,12.3-7.65,20t-20.2,7.69H178.57a3,3,0,0,1-3-3h0a3,3,0,0,1,2.51-3l4.68-.8V51l-4.66-.8a3,3,0,0,1-2.53-3h0a3,3,0,0,1,3-3h23.84Zm-11,6.83v50.54h11q8.9,0,14-5.86t5.13-15V71.79q0-9.08-5.13-14.93t-14-5.86Z"/><path class="cls-2" d="M238.92,84q0-10.58,5.72-17.42t15.56-6.85q9.87,0,15.62,6.83T281.57,84v1q0,10.67-5.73,17.45t-15.56,6.79q-9.9,0-15.64-6.81T238.92,85Zm8.67,1q0,7.59,3.2,12.52a11.5,11.5,0,0,0,18.88,0q3.21-4.94,3.22-12.52V84a22.59,22.59,0,0,0-3.22-12.47,10.56,10.56,0,0,0-9.47-5,10.43,10.43,0,0,0-9.43,5A22.75,22.75,0,0,0,247.59,84Z"/><path class="cls-2" d="M290.28,102.34l4.68-.8V67.48l-4.66-.8a3,3,0,0,1-2.52-3h0a3,3,0,0,1,3-3h11.95l.57,6.21a15.65,15.65,0,0,1,5.9-5.24,18.06,18.06,0,0,1,8.38-1.85,14.74,14.74,0,0,1,8.17,2.2,13.27,13.27,0,0,1,5.13,6.61,17.75,17.75,0,0,1,5.95-6.44,15.68,15.68,0,0,1,8.64-2.37q7.31,0,11.54,5t4.23,15v21.73l4.68.8a3,3,0,0,1,2.5,3h0a3,3,0,0,1-3,3H348.38a3,3,0,0,1-3-3h0a3,3,0,0,1,2.5-3l4.68-.8V79.73q0-7-2.43-10c-1.61-2-4-2.93-7.18-2.93A9.16,9.16,0,0,0,335.65,70a13.83,13.83,0,0,0-3.19,8v23.49l4.68.8a3,3,0,0,1,2.5,3h0a3,3,0,0,1-3,3h-17a3,3,0,0,1-3-3h0a3,3,0,0,1,2.51-3l4.68-.8V79.73c0-4.47-.84-7.74-2.49-9.81a8.7,8.7,0,0,0-7.21-3.1,11.89,11.89,0,0,0-6.52,1.63A10.49,10.49,0,0,0,303.64,73v28.51l4.68.8a3,3,0,0,1,2.5,3h0a3,3,0,0,1-3,3h-17a3,3,0,0,1-3-3h0A3,3,0,0,1,290.28,102.34Z"/><path class="cls-2" d="M395.85,105.31h0a3,3,0,0,1,2.51-3l4.68-.8V51l-4.66-.8a3,3,0,0,1-2.53-3h0a3,3,0,0,1,3-3h17a3,3,0,0,1,3,3h0a3,3,0,0,1-2.52,3l-4.66.8v50.54H434l.35-3.84a3.87,3.87,0,0,1,3.85-3.52h0A3.86,3.86,0,0,1,442.07,98v10.28h-43.2A3,3,0,0,1,395.85,105.31Z"/><path class="cls-2" d="M481.64,101.27a16.11,16.11,0,0,1-5.79,5.91,15.94,15.94,0,0,1-8.18,2.07q-7.76,0-12.11-5t-4.37-15.51V67.48l-3-.69a3.11,3.11,0,0,1-2.43-3h0a3.11,3.11,0,0,1,3.11-3.11h11v28.2q0,7.62,2.24,10.48t7,2.87a14.25,14.25,0,0,0,7.64-1.88A11.65,11.65,0,0,0,481.33,95V67.48l-3.9-.76a3.07,3.07,0,0,1-2.49-3h0A3.07,3.07,0,0,1,478,60.65h12v40.89l3.06.69a3.07,3.07,0,0,1,2.41,3h0a3.08,3.08,0,0,1-3.09,3.08H482.21Z"/><path class="cls-2" d="M503.68,102.54l5.85-1V67.48l-4.66-.8a3,3,0,0,1-2.52-3h0a3,3,0,0,1,3-3h12.82v40.89l4.68.8a3,3,0,0,1,2.5,3h0a3,3,0,0,1-3,3H504a1.61,1.61,0,0,1-1.61-1.6v-2.6A1.6,1.6,0,0,1,503.68,102.54Zm10.19-54.1h0a4.34,4.34,0,0,1-4.34-4.34v-.17a4.34,4.34,0,0,1,4.34-4.34h0a4.34,4.34,0,0,1,4.34,4.34v.17A4.34,4.34,0,0,1,513.87,48.44Z"/><path class="cls-2" d="M532.05,85.37q0-11.5,5-18.55a16.1,16.1,0,0,1,13.88-7,16.84,16.84,0,0,1,7.89,1.76,15.48,15.48,0,0,1,5.68,5.11l.35-2.61a3.89,3.89,0,0,1,3.86-3.38h0a3.9,3.9,0,0,1,3.9,3.89V107.7q0,9.26-5.16,14.57t-14.67,5.31a32.7,32.7,0,0,1-7.45-1,33.06,33.06,0,0,1-3.86-1.16,3.59,3.59,0,0,1-2.16-4.5h0a3.55,3.55,0,0,1,4.48-2.27c.78.26,1.6.5,2.47.72a26.06,26.06,0,0,0,6.43.84q5.82,0,8.53-3.26c1.8-2.17,2.71-5.27,2.71-9.3v-4.53a15.41,15.41,0,0,1-5.6,4.53,17.29,17.29,0,0,1-7.49,1.55q-8.76,0-13.79-6.35t-5-16.61Zm8.68.92q0,7.18,3,11.54T553,102.2a11.46,11.46,0,0,0,6.56-1.79,13.55,13.55,0,0,0,4.37-5v-22a13.49,13.49,0,0,0-4.37-4.82,11.42,11.42,0,0,0-6.47-1.78,10.13,10.13,0,0,0-9.3,5.19q-3.09,5.2-3.08,13.36Z"/><path class="cls-2" d="M583.11,85.37q0-11.5,5-18.55a16.1,16.1,0,0,1,13.88-7,16.8,16.8,0,0,1,7.88,1.76,15.51,15.51,0,0,1,5.69,5.11l.34-2.61a3.9,3.9,0,0,1,3.87-3.38h0a3.89,3.89,0,0,1,3.89,3.89V107.7q0,9.26-5.15,14.57t-14.67,5.31a32.57,32.57,0,0,1-7.45-1,33.83,33.83,0,0,1-3.87-1.16,3.58,3.58,0,0,1-2.15-4.5h0a3.54,3.54,0,0,1,4.48-2.27c.77.26,1.6.5,2.47.72a26,26,0,0,0,6.43.84q5.82,0,8.52-3.26t2.71-9.3v-4.53a15.3,15.3,0,0,1-5.59,4.53,17.32,17.32,0,0,1-7.49,1.55q-8.77,0-13.79-6.35t-5-16.61Zm8.68.92q0,7.18,3,11.54t9.26,4.37a11.46,11.46,0,0,0,6.56-1.79,13.53,13.53,0,0,0,4.36-5v-22a13.46,13.46,0,0,0-4.36-4.82,11.43,11.43,0,0,0-6.48-1.78A10.1,10.1,0,0,0,594.88,72q-3.09,5.2-3.09,13.36Z"/><path class="cls-2" d="M636.64,102.34l4.68-.8V67.48l-4.66-.8a3,3,0,0,1-2.52-3h0a3,3,0,0,1,3-3H650v40.89l4.68.8a3,3,0,0,1,2.5,3h0a3,3,0,0,1-3,3h-17a3,3,0,0,1-3-3h0A3,3,0,0,1,636.64,102.34Zm9-53.9h0a4.34,4.34,0,0,1-4.34-4.34v-.17a4.34,4.34,0,0,1,4.34-4.34h0A4.34,4.34,0,0,1,650,43.93v.17A4.34,4.34,0,0,1,645.66,48.44Z"/></svg>