<svg xmlns="http://www.w3.org/2000/svg" viewBox="0 0 48.007 48.007"><defs><style>.a{fill:#ce984a;opacity:0.8;}</style></defs><g transform="translate(-56 -119.992)"><path class="a" d="M24.671,48.007h0V25.614L40.505,41.448a23.957,23.957,0,0,1-15.834,6.559Zm-1.334,0h0A23.959,23.959,0,0,1,7.5,41.449L23.336,25.615V48.007Zm-16.777-7.5h0A23.96,23.96,0,0,1,0,24.671H22.393L6.559,40.5Zm34.889,0h0L25.614,24.671H48.007A23.961,23.961,0,0,1,41.449,40.5Zm6.559-17.168H25.614L41.448,7.5a23.963,23.963,0,0,1,6.559,15.833Zm-25.614,0H0A23.958,23.958,0,0,1,6.559,7.5L22.392,23.335Zm2.277-.943h0V0a23.96,23.96,0,0,1,15.834,6.56L24.672,22.393Zm-1.334,0h0L7.5,6.559A23.959,23.959,0,0,1,23.336,0V22.392Z" transform="translate(56 119.993)"/></g></svg>